<svg xmlns="http://www.w3.org/2000/svg" xmlns:xlink="http://www.w3.org/1999/xlink" viewBox="0 0 278.1 235.88"><defs><style>.cls-1{fill:#fff;}.cls-2{fill:url(#linear-gradient);}.cls-3{fill:url(#linear-gradient-2);}.cls-4{fill:url(#linear-gradient-3);}.cls-5{fill:url(#linear-gradient-4);}.cls-6{fill:url(#linear-gradient-5);}.cls-7{fill:url(#linear-gradient-6);}.cls-8{fill:url(#linear-gradient-7);}.cls-9{fill:url(#linear-gradient-8);}.cls-10{fill:url(#linear-gradient-9);}.cls-11{fill:url(#linear-gradient-10);}.cls-12{fill:url(#linear-gradient-11);}.cls-13{fill:url(#linear-gradient-12);}.cls-14{fill:url(#linear-gradient-13);}.cls-15{fill:#640000;opacity:0.09;}.cls-16{fill:url(#linear-gradient-14);}.cls-17{fill:url(#linear-gradient-15);}.cls-18{fill:url(#linear-gradient-16);}.cls-19{fill:url(#linear-gradient-17);}.cls-20{fill:url(#linear-gradient-18);}.cls-21{fill:url(#linear-gradient-19);}.cls-22{fill:url(#linear-gradient-20);}.cls-23{fill:url(#linear-gradient-21);}.cls-24{fill:url(#linear-gradient-22);}.cls-25{fill:url(#linear-gradient-23);}.cls-26{fill:url(#linear-gradient-24);}.cls-27{fill:#b9d7ff;}</style><linearGradient id="linear-gradient" x1="56.04" y1="12.82" x2="55.85" y2="13.05" gradientUnits="userSpaceOnUse"><stop offset="0" stop-color="#ffda32"/><stop offset="0.5" stop-color="#ffa800"/><stop offset="0.98" stop-color="#ff6b37"/></linearGradient><linearGradient id="linear-gradient-2" x1="59.23" y1="10.34" x2="58.98" y2="10.64" xlink:href="#linear-gradient"/><linearGradient id="linear-gradient-3" x1="64.01" y1="7.04" x2="62.95" y2="8.27" xlink:href="#linear-gradient"/><linearGradient id="linear-gradient-4" x1="65.86" y1="6.06" x2="64.99" y2="7.08" xlink:href="#linear-gradient"/><linearGradient id="linear-gradient-5" x1="68.13" y1="5.18" x2="68.01" y2="5.32" xlink:href="#linear-gradient"/><linearGradient id="linear-gradient-6" x1="71.67" y1="2.77" x2="69.11" y2="5.74" xlink:href="#linear-gradient"/><linearGradient id="linear-gradient-7" x1="88.19" y1="-4.31" x2="78.23" y2="7.28" xlink:href="#linear-gradient"/><linearGradient id="linear-gradient-8" x1="96.93" y1="-0.89" x2="95.11" y2="1.22" xlink:href="#linear-gradient"/><linearGradient id="linear-gradient-9" x1="125.94" y1="100.78" x2="125.26" y2="101.57" xlink:href="#linear-gradient"/><linearGradient id="linear-gradient-10" x1="135.01" y1="92.19" x2="132.82" y2="94.74" xlink:href="#linear-gradient"/><linearGradient id="linear-gradient-11" x1="137.84" y1="88.7" x2="136.19" y2="90.62" xlink:href="#linear-gradient"/><linearGradient id="linear-gradient-12" x1="139.32" y1="86.42" x2="138.83" y2="86.99" xlink:href="#linear-gradient"/><linearGradient id="linear-gradient-13" x1="140.29" y1="84.92" x2="139.57" y2="85.76" xlink:href="#linear-gradient"/><linearGradient id="linear-gradient-14" x1="128.46" y1="13.59" x2="55.16" y2="98.88" xlink:href="#linear-gradient"/><linearGradient id="linear-gradient-15" x1="56.05" y1="12.84" x2="56.06" y2="12.85" xlink:href="#linear-gradient"/><linearGradient id="linear-gradient-16" x1="55.55" y1="10.37" x2="55.55" y2="10.38" xlink:href="#linear-gradient"/><linearGradient id="linear-gradient-17" x1="63.24" y1="7.76" x2="63.31" y2="7.92" xlink:href="#linear-gradient"/><linearGradient id="linear-gradient-18" x1="65.53" y1="6.49" x2="65.58" y2="6.59" xlink:href="#linear-gradient"/><linearGradient id="linear-gradient-19" x1="66.39" y1="6.06" x2="66.41" y2="6.1" xlink:href="#linear-gradient"/><linearGradient id="linear-gradient-20" x1="68.07" y1="5.25" x2="68.07" y2="5.26" xlink:href="#linear-gradient"/><linearGradient id="linear-gradient-21" x1="68.43" y1="5.09" x2="68.43" y2="5.1" xlink:href="#linear-gradient"/><linearGradient id="linear-gradient-22" x1="69.32" y1="4.69" x2="69.33" y2="4.71" xlink:href="#linear-gradient"/><linearGradient id="linear-gradient-23" x1="101.14" y1="111.66" x2="101.19" y2="111.78" xlink:href="#linear-gradient"/><linearGradient id="linear-gradient-24" x1="140.05" y1="84.99" x2="140.19" y2="85.32" xlink:href="#linear-gradient"/></defs><title>Asset 9</title><g id="Layer_2" data-name="Layer 2"><g id="Layer_1-2" data-name="Layer 1"><path class="cls-1" d="M29.46,212.71v9.5A17.39,17.39,0,0,1,28,229.73a9.81,9.81,0,0,1-4.3,4.6,14.53,14.53,0,0,1-7,1.55,15.65,15.65,0,0,1-7.13-1.46,9.59,9.59,0,0,1-4.37-4.33A15.54,15.54,0,0,1,3.72,223v-17.7a17.26,17.26,0,0,1,1.45-7.5,9.83,9.83,0,0,1,4.3-4.59,14.64,14.64,0,0,1,7-1.55,13.88,13.88,0,0,1,6.6,1.43,10,10,0,0,1,4.18,4.28,17.61,17.61,0,0,1,1.82,7.16H24.45a13.45,13.45,0,0,0-1.26-4.89,7,7,0,0,0-2.67-2.94,7.73,7.73,0,0,0-4-1,9.29,9.29,0,0,0-4.68,1.1A6.85,6.85,0,0,0,9,200.05a12.76,12.76,0,0,0-1,5.27V223a10.78,10.78,0,0,0,1,4.84,6.71,6.71,0,0,0,2.91,3,10.1,10.1,0,0,0,4.78,1,9.26,9.26,0,0,0,4.62-1.05,6.63,6.63,0,0,0,2.78-3.16,12.91,12.91,0,0,0,.94-5.29v-5.66H16.68v-4Z" transform="translate(-3.72)"/><path class="cls-1" d="M41.74,234.45a9.54,9.54,0,0,1-3.93-4.12,14.43,14.43,0,0,1-1.35-6.51V216.7a16.13,16.13,0,0,1,1.31-6.85,9.6,9.6,0,0,1,3.79-4.32,11.52,11.52,0,0,1,6-1.49,11.18,11.18,0,0,1,5.8,1.42,9,9,0,0,1,3.68,4.14,15.35,15.35,0,0,1,1.27,6.56v5.66H39.23v-4h15v-2a9,9,0,0,0-1.76-5.81A6,6,0,0,0,47.57,208a6.32,6.32,0,0,0-5.16,2.19,9.43,9.43,0,0,0-1.81,6.18v7.57a8.31,8.31,0,0,0,1.93,5.87A7,7,0,0,0,48,231.89a6.34,6.34,0,0,0,3.85-1.14,5.94,5.94,0,0,0,2.14-3.18l4,1.25a8.58,8.58,0,0,1-3.45,5.25A11.27,11.27,0,0,1,48,235.88,12.56,12.56,0,0,1,41.74,234.45Z" transform="translate(-3.72)"/><path class="cls-1" d="M69.71,234.57A8.57,8.57,0,0,1,66,230.73a13.38,13.38,0,0,1-1.27-6.08v-9.53a13,13,0,0,1,1.27-6,8.69,8.69,0,0,1,3.69-3.8,13.67,13.67,0,0,1,11.68,0,8.84,8.84,0,0,1,3.71,3.8,13,13,0,0,1,1.28,6v9.62a13.12,13.12,0,0,1-1.28,6,8.76,8.76,0,0,1-3.71,3.81,13.67,13.67,0,0,1-11.68,0ZM80.37,230a7.48,7.48,0,0,0,1.72-5.25v-9.68a7.35,7.35,0,0,0-1.73-5.21A6.29,6.29,0,0,0,75.53,208a6.19,6.19,0,0,0-4.79,1.85,7.43,7.43,0,0,0-1.7,5.21v9.68a7.53,7.53,0,0,0,1.7,5.26,6.16,6.16,0,0,0,4.79,1.86A6.21,6.21,0,0,0,80.37,230Z" transform="translate(-3.72)"/><path class="cls-1" d="M106.81,192.13h3.3L117.8,230l6.91-37.83h4.68l-9.09,43.31h-5.15l-6.49-32.92-6.85,32.92H96.62l-9.05-43.31h4.67L99.12,230Z" transform="translate(-3.72)"/><path class="cls-1" d="M135.86,234.45a9.54,9.54,0,0,1-3.93-4.12,14.43,14.43,0,0,1-1.35-6.51V216.7a16.13,16.13,0,0,1,1.31-6.85,9.56,9.56,0,0,1,3.8-4.32,11.46,11.46,0,0,1,6-1.49,11.24,11.24,0,0,1,5.81,1.42,9.07,9.07,0,0,1,3.67,4.14,15.35,15.35,0,0,1,1.27,6.56v5.66H133.35v-4h15v-2a9,9,0,0,0-1.76-5.81,6,6,0,0,0-4.88-2.09,6.34,6.34,0,0,0-5.16,2.19,9.43,9.43,0,0,0-1.81,6.18v7.57a8.31,8.31,0,0,0,1.93,5.87,7,7,0,0,0,5.42,2.08,6.34,6.34,0,0,0,3.85-1.14,5.94,5.94,0,0,0,2.14-3.18l4,1.25a8.58,8.58,0,0,1-3.45,5.25,11.25,11.25,0,0,1-6.56,1.81A12.56,12.56,0,0,1,135.86,234.45Z" transform="translate(-3.72)"/><path class="cls-1" d="M161.14,233.56q-2.5-2.33-2.5-6.79c0-3.2.84-5.63,2.54-7.28s4.18-2.49,7.43-2.49h7.93l.41,3.54h-8.31a5.87,5.87,0,0,0-4.41,1.58,6.46,6.46,0,0,0-1.51,4.65,5.08,5.08,0,0,0,1.65,4.11,7.26,7.26,0,0,0,4.81,1.4,9.91,9.91,0,0,0,5.26-1.16,3.81,3.81,0,0,0,1.83-3.43l.62,3.31a5.89,5.89,0,0,1-1.61,2.69,7.14,7.14,0,0,1-2.87,1.64,13.34,13.34,0,0,1-4,.55Q163.64,235.88,161.14,233.56Zm15.13-19.27a5.93,5.93,0,0,0-6.52-6.52,7.24,7.24,0,0,0-3.92,1,6.23,6.23,0,0,0-2.49,2.95l-3.63-1.1a8.47,8.47,0,0,1,3.5-4.89,11.37,11.37,0,0,1,6.51-1.76,12.62,12.62,0,0,1,5.76,1.21,8.34,8.34,0,0,1,3.65,3.47,11.24,11.24,0,0,1,1.25,5.48v21.27h-4.11Z" transform="translate(-3.72)"/><path class="cls-1" d="M185.89,204.52h13.64v3.84H185.89Zm4.93,29q-1.74-2.09-1.74-6.13V195.52h4.28v31.93a4.65,4.65,0,0,0,.9,3.07,3.23,3.23,0,0,0,2.65,1.07h2.62v4h-3.22C193.81,235.58,192,234.9,190.82,233.52Z" transform="translate(-3.72)"/><path class="cls-1" d="M206.23,192.13h4.29v43.31h-4.29Zm17.58,23a7.42,7.42,0,0,0-1.73-5.3,6.55,6.55,0,0,0-5-1.82,6.41,6.41,0,0,0-4.88,1.78,7.23,7.23,0,0,0-1.7,5.19l-.62-5.54a9.17,9.17,0,0,1,3.6-4.12,10.47,10.47,0,0,1,5.36-1.33,8.41,8.41,0,0,1,6.88,2.86q2.35,2.87,2.35,8.28v20.29h-4.28Z" transform="translate(-3.72)"/><path class="cls-1" d="M240.53,234.45a9.43,9.43,0,0,1-3.93-4.12,14.29,14.29,0,0,1-1.36-6.51V216.7a16.29,16.29,0,0,1,1.31-6.85,9.62,9.62,0,0,1,3.8-4.32,11.51,11.51,0,0,1,6-1.49,11.22,11.22,0,0,1,5.81,1.42,9,9,0,0,1,3.68,4.14,15.5,15.5,0,0,1,1.27,6.56v5.66H238v-4h15v-2a9,9,0,0,0-1.76-5.81,6,6,0,0,0-4.89-2.09,6.32,6.32,0,0,0-5.15,2.19,9.43,9.43,0,0,0-1.82,6.18v7.57a8.31,8.31,0,0,0,1.94,5.87,7,7,0,0,0,5.42,2.08,6.29,6.29,0,0,0,3.84-1.14,5.9,5.9,0,0,0,2.15-3.18l4,1.25a8.59,8.59,0,0,1-3.46,5.25,11.22,11.22,0,0,1-6.55,1.81A12.56,12.56,0,0,1,240.53,234.45Z" transform="translate(-3.72)"/><path class="cls-1" d="M264.28,204.52h4.29v30.92h-4.29Zm14.91,3.74a5.34,5.34,0,0,0-1.71-.26,9.4,9.4,0,0,0-6.45,2.07,7.7,7.7,0,0,0-2.46,5.8l-.62-6a12,12,0,0,1,4.45-4.35,12.14,12.14,0,0,1,6-1.55,5.55,5.55,0,0,1,1.91.32,4.25,4.25,0,0,1,1.49.9L280.46,209A3.17,3.17,0,0,0,279.19,208.26Z" transform="translate(-3.72)"/><path class="cls-2" d="M56.07,12.83l0,0-.23.19.23-.2Z" transform="translate(-3.72)"/><path class="cls-3" d="M59.28,10.37h0l-.34.24.34-.25Z" transform="translate(-3.72)"/><path class="cls-4" d="M64.25,7.22l-.41.24c-.4.22-.78.45-1.16.68h0l.57-.34Z" transform="translate(-3.72)"/><path class="cls-5" d="M65,6.79c.34-.19.7-.38,1.06-.56L65,6.8a1.91,1.91,0,0,0-.28.15Z" transform="translate(-3.72)"/><path class="cls-6" d="M68.05,5.26a.33.33,0,0,1,.12,0L68,5.3Z" transform="translate(-3.72)"/><path class="cls-7" d="M70,4.41c.84-.35,1.68-.69,2.54-1-.86.32-1.71.65-2.55,1-.43.17-.85.36-1.26.55l-.51.23L68.54,5l.77-.35.62-.27Z" transform="translate(-3.72)"/><path class="cls-8" d="M93.51,0,91.83,0a56.19,56.19,0,0,0-19.32,3.4A55.94,55.94,0,0,1,91.82,0C92.39,0,93,0,93.51,0Z" transform="translate(-3.72)"/><path class="cls-9" d="M98.47.39C96.84.2,95.18.08,93.51,0,95.18.07,96.84.2,98.47.39Z" transform="translate(-3.72)"/><path class="cls-10" d="M126.05,100.85l-.12.1-.79.58Z" transform="translate(-3.72)"/><path class="cls-11" d="M135.06,92.18c-.27.33-.55.66-.83,1l-.56.63-.23.26-.17.18c-.19.21-.38.42-.58.62q.62-.64,1.2-1.32T135.06,92.18Z" transform="translate(-3.72)"/><path class="cls-12" d="M137.26,89.35l.53-.73a1.63,1.63,0,0,1-.11.17l-.13.18-.51.69-.51.68a0,0,0,0,1,0,0q-.15.21-.33.42C136.55,90.31,136.91,89.83,137.26,89.35Z" transform="translate(-3.72)"/><path class="cls-13" d="M139.29,86.38c-.14.23-.28.45-.44.68l.21-.34A4,4,0,0,0,139.29,86.38Z" transform="translate(-3.72)"/><path class="cls-14" d="M140.23,84.85c-.19.34-.4.68-.62,1,.12-.18.23-.37.34-.56a4.25,4.25,0,0,0,.27-.46Z" transform="translate(-3.72)"/><path class="cls-15" d="M101.37,111.66l-.1,0-.19,0Z" transform="translate(-3.72)"/><path class="cls-15" d="M126.05,100.85l-.12.1-.79.58Z" transform="translate(-3.72)"/><path class="cls-15" d="M133.89,93.53a2.75,2.75,0,0,1-.22.26l-.23.26-.17.18c-.19.21-.38.42-.58.62Q133.31,94.21,133.89,93.53Z" transform="translate(-3.72)"/><path class="cls-15" d="M135.06,92.18c-.27.33-.55.66-.83,1-.11.13-.22.25-.34.37Q134.49,92.87,135.06,92.18Z" transform="translate(-3.72)"/><path class="cls-15" d="M137.26,89.35a3.46,3.46,0,0,1-.22.31l-.51.68a0,0,0,0,1,0,0q-.15.21-.33.42C136.55,90.31,136.91,89.83,137.26,89.35Z" transform="translate(-3.72)"/><path class="cls-15" d="M137.79,88.62a1.63,1.63,0,0,1-.11.17l-.13.18c-.09.13-.19.25-.29.38Z" transform="translate(-3.72)"/><path class="cls-16" d="M148.05,56.24a56,56,0,0,1-7.5,28.07l-.32.54h0a4.25,4.25,0,0,1-.27.46c-.11.19-.22.38-.34.56l-.32.51a4,4,0,0,1-.23.34l-.21.34c-.18.28-.37.55-.55.82l-.51.74-.53.73c-.35.48-.71,1-1.08,1.43s-.74.94-1.12,1.4-.77.91-1.17,1.35-.79.89-1.2,1.32l-.17.18-1.09,1.11c-.42.42-.85.83-1.29,1.24-.28.27-.57.53-.87.8l-.36.32-.09.08-.93.79-.3.26-1,.84-.49.38-.91.68-.43.32-.4.28-1,.73-.43.28c-.28.19-.56.38-.85.56s-.4.26-.61.38-.54.34-.82.5l-.37.22-.1.06-1.31.74-.14.08-.12.06-.93.49-.36.19-.09,0-.79.38c-.49.24-1,.48-1.5.7-.33.16-.67.3-1,.45l-.42.17-1.28.52-.26.1c-.38.15-.78.29-1.18.43l-.48.17c-.55.19-1.1.38-1.66.55l-.74.22-.82.24c-.48.14-1,.26-1.45.38l-.86.21c-.49.12-1,.22-1.46.32s-1.1.22-1.65.31l-.2,0-.29,0-.14,0-.15,0c-.24,0-.48.08-.72.11s-.51.08-.77.11-.76.1-1.14.14l-.59.07-.43,0-1.35.11-.27,0-1.32.07h-.07l-.73,0-1.57,0A56.24,56.24,0,0,1,35.59,56.24c0-1.82.09-3.62.26-5.4,0-.33.06-.67.1-1a.5.5,0,0,1,0-.12c0-.31.07-.62.11-.93.18-1.34.4-2.66.67-4,.09-.43.18-.86.28-1.29h0c.1-.44.21-.88.32-1.31q.52-2,1.2-4c.14-.41.28-.83.43-1.24l.51-1.35c.17-.42.34-.84.52-1.26.36-.84.73-1.67,1.13-2.49.19-.41.4-.82.6-1.22s.42-.81.64-1.21c.43-.79.88-1.58,1.35-2.35l.72-1.15c.25-.38.49-.76.75-1.13h0l.44-.63q.15-.24.33-.48c.19-.26.37-.52.56-.77a.21.21,0,0,1,0-.06l.5-.66c.35-.46.72-.93,1.09-1.38.16-.21.33-.41.5-.62l.59-.7,0,0,.18-.21c.72-.82,1.46-1.62,2.22-2.39.12-.12.24-.25.36-.36s.25-.25.37-.36.39-.4.59-.58l.57-.53.71-.65a2.19,2.19,0,0,1,.23-.21l.2-.17L55.82,13l.23-.19,0,0c.41-.34.83-.68,1.26-1l.33-.26c.42-.32.84-.64,1.27-1l.34-.24h0c.14-.09.27-.19.41-.27.34-.25.68-.48,1-.71L61,9.22c.56-.37,1.12-.73,1.7-1.07h0c.38-.23.76-.46,1.16-.68l.41-.24L64.74,7A1.91,1.91,0,0,1,65,6.8l1.06-.57h0l.62-.31.46-.23.38-.19L68,5.3l.19-.09h0L68.69,5c.41-.19.83-.38,1.26-.55.84-.36,1.69-.69,2.55-1h0A56.19,56.19,0,0,1,91.83,0l1.68,0c1.67.05,3.33.17,5,.36l1.63.22,1.68.27,1.53.3c.53.12,1.06.23,1.58.36A56.25,56.25,0,0,1,148.05,56.24Z" transform="translate(-3.72)"/><path class="cls-17" d="M56.07,12.83l0,0h0Z" transform="translate(-3.72)"/><polygon class="cls-18" points="55.55 10.37 55.54 10.38 55.54 10.37 55.55 10.37"/><path class="cls-19" d="M63.84,7.46c-.4.22-.78.45-1.16.68h0l.57-.34C63.45,7.67,63.65,7.57,63.84,7.46Z" transform="translate(-3.72)"/><path class="cls-20" d="M65,6.79c.34-.19.7-.38,1.06-.56L65,6.8Z" transform="translate(-3.72)"/><path class="cls-21" d="M66.71,5.92l-.62.31a1.29,1.29,0,0,1,.16-.09A3.88,3.88,0,0,1,66.71,5.92Z" transform="translate(-3.72)"/><path class="cls-22" d="M68.05,5.26a.33.33,0,0,1,.12,0L68,5.3Z" transform="translate(-3.72)"/><path class="cls-23" d="M68.69,5l-.51.23L68.54,5Z" transform="translate(-3.72)"/><path class="cls-24" d="M70,4.41v0c-.43.17-.85.36-1.26.55l.62-.29.62-.27Z" transform="translate(-3.72)"/><path class="cls-25" d="M101.37,111.66l-.1,0-.33,0,.14,0Z" transform="translate(-3.72)"/><path class="cls-26" d="M140.23,84.85c-.09.16-.18.31-.28.46a4.25,4.25,0,0,0,.27-.46Z" transform="translate(-3.72)"/><path class="cls-27" d="M234.29,90.79l-.2,0a24.32,24.32,0,0,0-35.26-30.25,33.83,33.83,0,0,0-64.9,17h-.28a22.71,22.71,0,1,0,0,45.41H234.29a16.11,16.11,0,0,0,0-32.21Z" transform="translate(-3.72)"/><path class="cls-1" d="M193.94,112c-.08,0-.16,0-.24,0a29.32,29.32,0,0,0-42.52-36.47A40.82,40.82,0,0,0,72.59,91a41.65,41.65,0,0,0,.34,5l-.34,0a27.38,27.38,0,0,0,0,54.75H193.94a19.42,19.42,0,1,0,0-38.83Z" transform="translate(-3.72)"/></g></g></svg>