<svg xmlns="http://www.w3.org/2000/svg" xmlns:xlink="http://www.w3.org/1999/xlink" viewBox="0 0 278.1 247.97"><defs><style>.cls-1{fill:#fff;}.cls-2{fill:url(#linear-gradient);}.cls-3{fill:url(#linear-gradient-2);}.cls-4{fill:url(#linear-gradient-3);}.cls-5{fill:url(#linear-gradient-4);}.cls-6{fill:url(#linear-gradient-5);}.cls-7{fill:url(#linear-gradient-6);}.cls-8{fill:url(#linear-gradient-7);}.cls-9{fill:url(#linear-gradient-8);}.cls-10{fill:url(#linear-gradient-9);}.cls-11{fill:url(#linear-gradient-10);}.cls-12{fill:url(#linear-gradient-11);}.cls-13{fill:url(#linear-gradient-12);}.cls-14{fill:url(#linear-gradient-13);}.cls-15{fill:#640000;opacity:0.09;}.cls-16{fill:url(#linear-gradient-14);}.cls-17{fill:url(#linear-gradient-15);}.cls-18{fill:url(#linear-gradient-16);}.cls-19{fill:url(#linear-gradient-17);}.cls-20{fill:url(#linear-gradient-18);}.cls-21{fill:url(#linear-gradient-19);}.cls-22{fill:url(#linear-gradient-20);}.cls-23{fill:url(#linear-gradient-21);}.cls-24{fill:url(#linear-gradient-22);}.cls-25{fill:url(#linear-gradient-23);}.cls-26{fill:url(#linear-gradient-24);}</style><linearGradient id="linear-gradient" x1="141.01" y1="15.11" x2="140.78" y2="15.38" gradientUnits="userSpaceOnUse"><stop offset="0" stop-color="#ffda32"/><stop offset="0.5" stop-color="#ffa800"/><stop offset="0.98" stop-color="#ff6b37"/></linearGradient><linearGradient id="linear-gradient-2" x1="144.77" y1="12.19" x2="144.47" y2="12.54" xlink:href="#linear-gradient"/><linearGradient id="linear-gradient-3" x1="150.4" y1="8.3" x2="149.16" y2="9.74" xlink:href="#linear-gradient"/><linearGradient id="linear-gradient-4" x1="152.58" y1="7.15" x2="151.55" y2="8.34" xlink:href="#linear-gradient"/><linearGradient id="linear-gradient-5" x1="155.26" y1="6.11" x2="155.12" y2="6.27" xlink:href="#linear-gradient"/><linearGradient id="linear-gradient-6" x1="159.43" y1="3.26" x2="156.41" y2="6.77" xlink:href="#linear-gradient"/><linearGradient id="linear-gradient-7" x1="178.9" y1="-5.08" x2="167.16" y2="8.58" xlink:href="#linear-gradient"/><linearGradient id="linear-gradient-8" x1="189.2" y1="-1.05" x2="187.06" y2="1.44" xlink:href="#linear-gradient"/><linearGradient id="linear-gradient-9" x1="223.4" y1="118.78" x2="222.6" y2="119.71" xlink:href="#linear-gradient"/><linearGradient id="linear-gradient-10" x1="234.09" y1="108.66" x2="231.51" y2="111.66" xlink:href="#linear-gradient"/><linearGradient id="linear-gradient-11" x1="237.42" y1="104.55" x2="235.47" y2="106.81" xlink:href="#linear-gradient"/><linearGradient id="linear-gradient-12" x1="239.17" y1="101.86" x2="238.59" y2="102.53" xlink:href="#linear-gradient"/><linearGradient id="linear-gradient-13" x1="240.3" y1="100.09" x2="239.45" y2="101.08" xlink:href="#linear-gradient"/><linearGradient id="linear-gradient-14" x1="226.36" y1="16.02" x2="139.97" y2="116.54" xlink:href="#linear-gradient"/><linearGradient id="linear-gradient-15" x1="141.02" y1="15.13" x2="141.03" y2="15.14" xlink:href="#linear-gradient"/><linearGradient id="linear-gradient-16" x1="141.09" y1="12.22" x2="141.09" y2="12.23" xlink:href="#linear-gradient"/><linearGradient id="linear-gradient-17" x1="149.49" y1="9.14" x2="149.57" y2="9.33" xlink:href="#linear-gradient"/><linearGradient id="linear-gradient-18" x1="152.2" y1="7.65" x2="152.25" y2="7.76" xlink:href="#linear-gradient"/><linearGradient id="linear-gradient-19" x1="153.21" y1="7.15" x2="153.23" y2="7.19" xlink:href="#linear-gradient"/><linearGradient id="linear-gradient-20" x1="155.18" y1="6.19" x2="155.19" y2="6.2" xlink:href="#linear-gradient"/><linearGradient id="linear-gradient-21" x1="155.61" y1="6" x2="155.61" y2="6.01" xlink:href="#linear-gradient"/><linearGradient id="linear-gradient-22" x1="156.66" y1="5.53" x2="156.67" y2="5.55" xlink:href="#linear-gradient"/><linearGradient id="linear-gradient-23" x1="194.16" y1="131.61" x2="194.22" y2="131.74" xlink:href="#linear-gradient"/><linearGradient id="linear-gradient-24" x1="240.02" y1="100.17" x2="240.19" y2="100.56" xlink:href="#linear-gradient"/></defs><title>Asset 8</title><g id="Layer_2" data-name="Layer 2"><g id="Layer_1-2" data-name="Layer 1"><path class="cls-1" d="M29.46,224.8v9.5A17.39,17.39,0,0,1,28,241.82a9.81,9.81,0,0,1-4.3,4.6,14.53,14.53,0,0,1-7,1.55,15.65,15.65,0,0,1-7.13-1.46,9.59,9.59,0,0,1-4.37-4.33,15.54,15.54,0,0,1-1.46-7.07v-17.7a17.26,17.26,0,0,1,1.45-7.5,9.83,9.83,0,0,1,4.3-4.59,14.64,14.64,0,0,1,7-1.55,13.88,13.88,0,0,1,6.6,1.43,10,10,0,0,1,4.18,4.28,17.61,17.61,0,0,1,1.82,7.16H24.45a13.45,13.45,0,0,0-1.26-4.89,7,7,0,0,0-2.67-2.94,7.73,7.73,0,0,0-4-1,9.29,9.29,0,0,0-4.68,1.1A6.85,6.85,0,0,0,9,212.14a12.76,12.76,0,0,0-1,5.27v17.7A10.78,10.78,0,0,0,9,240a6.71,6.71,0,0,0,2.91,3,10.22,10.22,0,0,0,4.78,1,9.15,9.15,0,0,0,4.62-1.06,6.56,6.56,0,0,0,2.78-3.15,12.91,12.91,0,0,0,.94-5.29v-5.66H16.68v-4Z" transform="translate(-3.72)"/><path class="cls-1" d="M41.74,246.54a9.49,9.49,0,0,1-3.93-4.12,14.43,14.43,0,0,1-1.35-6.51v-7.12a16.13,16.13,0,0,1,1.31-6.85,9.55,9.55,0,0,1,3.79-4.32,11.52,11.52,0,0,1,6-1.49,11.18,11.18,0,0,1,5.8,1.42,9,9,0,0,1,3.68,4.14,15.37,15.37,0,0,1,1.27,6.57v5.65H39.23v-4h15v-2a9,9,0,0,0-1.76-5.81,6,6,0,0,0-4.88-2.09,6.32,6.32,0,0,0-5.16,2.19,9.43,9.43,0,0,0-1.81,6.18V236a8.31,8.31,0,0,0,1.93,5.87A7,7,0,0,0,48,244a6.28,6.28,0,0,0,3.85-1.15,5.88,5.88,0,0,0,2.14-3.17l4,1.25a8.58,8.58,0,0,1-3.45,5.25A11.27,11.27,0,0,1,48,248,12.56,12.56,0,0,1,41.74,246.54Z" transform="translate(-3.72)"/><path class="cls-1" d="M69.71,246.66A8.57,8.57,0,0,1,66,242.82a13.38,13.38,0,0,1-1.27-6.08v-9.53a13,13,0,0,1,1.27-6,8.69,8.69,0,0,1,3.69-3.8,13.67,13.67,0,0,1,11.68,0,8.84,8.84,0,0,1,3.71,3.8,13,13,0,0,1,1.28,6v9.62a13.12,13.12,0,0,1-1.28,6,8.76,8.76,0,0,1-3.71,3.81,13.67,13.67,0,0,1-11.68,0Zm10.66-4.55a7.48,7.48,0,0,0,1.72-5.25v-9.68A7.35,7.35,0,0,0,80.36,222a6.29,6.29,0,0,0-4.83-1.85A6.19,6.19,0,0,0,70.74,222a7.43,7.43,0,0,0-1.7,5.21v9.68a7.53,7.53,0,0,0,1.7,5.26A6.16,6.16,0,0,0,75.53,244,6.21,6.21,0,0,0,80.37,242.11Z" transform="translate(-3.72)"/><path class="cls-1" d="M106.81,204.22h3.3l7.69,37.83,6.91-37.83h4.68l-9.09,43.31h-5.15l-6.49-32.92-6.85,32.92H96.62l-9.05-43.31h4.67l6.88,37.83Z" transform="translate(-3.72)"/><path class="cls-1" d="M135.86,246.54a9.49,9.49,0,0,1-3.93-4.12,14.43,14.43,0,0,1-1.35-6.51v-7.12a16.13,16.13,0,0,1,1.31-6.85,9.51,9.51,0,0,1,3.8-4.32,11.46,11.46,0,0,1,6-1.49,11.24,11.24,0,0,1,5.81,1.42,9.07,9.07,0,0,1,3.67,4.14,15.37,15.37,0,0,1,1.27,6.57v5.65H133.35v-4h15v-2a9,9,0,0,0-1.76-5.81,6,6,0,0,0-4.88-2.09,6.34,6.34,0,0,0-5.16,2.19,9.43,9.43,0,0,0-1.81,6.18V236a8.31,8.31,0,0,0,1.93,5.87,7,7,0,0,0,5.42,2.08,6.28,6.28,0,0,0,3.85-1.15,5.88,5.88,0,0,0,2.14-3.17l4,1.25a8.58,8.58,0,0,1-3.45,5.25,11.25,11.25,0,0,1-6.56,1.81A12.56,12.56,0,0,1,135.86,246.54Z" transform="translate(-3.72)"/><path class="cls-1" d="M161.14,245.65q-2.5-2.33-2.5-6.79c0-3.2.84-5.63,2.54-7.28s4.18-2.49,7.43-2.49h7.93l.41,3.54h-8.31a5.87,5.87,0,0,0-4.41,1.58,6.46,6.46,0,0,0-1.51,4.65,5.08,5.08,0,0,0,1.65,4.11,7.26,7.26,0,0,0,4.81,1.4,9.91,9.91,0,0,0,5.26-1.16,3.81,3.81,0,0,0,1.83-3.43l.62,3.31a5.89,5.89,0,0,1-1.61,2.69,7.14,7.14,0,0,1-2.87,1.64,13.34,13.34,0,0,1-4,.55Q163.64,248,161.14,245.65Zm15.13-19.27a5.93,5.93,0,0,0-6.52-6.52,7.24,7.24,0,0,0-3.92,1,6.23,6.23,0,0,0-2.49,2.95l-3.63-1.11a8.48,8.48,0,0,1,3.5-4.88,11.37,11.37,0,0,1,6.51-1.76,12.62,12.62,0,0,1,5.76,1.21,8.34,8.34,0,0,1,3.65,3.47,11.21,11.21,0,0,1,1.25,5.48v21.27h-4.11Z" transform="translate(-3.72)"/><path class="cls-1" d="M185.89,216.61h13.64v3.84H185.89Zm4.93,29q-1.74-2.09-1.74-6.13V207.61h4.28v31.93a4.65,4.65,0,0,0,.9,3.07,3.23,3.23,0,0,0,2.65,1.07h2.62v4h-3.22Q192.56,247.68,190.82,245.61Z" transform="translate(-3.72)"/><path class="cls-1" d="M206.23,204.22h4.29v43.31h-4.29Zm17.58,23a7.42,7.42,0,0,0-1.73-5.3,6.55,6.55,0,0,0-5-1.82,6.41,6.41,0,0,0-4.88,1.78,7.23,7.23,0,0,0-1.7,5.19l-.62-5.54a9.17,9.17,0,0,1,3.6-4.12,10.37,10.37,0,0,1,5.36-1.33,8.41,8.41,0,0,1,6.88,2.86q2.35,2.86,2.35,8.28v20.29h-4.28Z" transform="translate(-3.72)"/><path class="cls-1" d="M240.53,246.54a9.38,9.38,0,0,1-3.93-4.12,14.29,14.29,0,0,1-1.36-6.51v-7.12a16.29,16.29,0,0,1,1.31-6.85,9.57,9.57,0,0,1,3.8-4.32,11.51,11.51,0,0,1,6-1.49,11.22,11.22,0,0,1,5.81,1.42,9,9,0,0,1,3.68,4.14,15.52,15.52,0,0,1,1.27,6.57v5.65H238v-4h15v-2a9,9,0,0,0-1.76-5.81,6,6,0,0,0-4.89-2.09,6.32,6.32,0,0,0-5.15,2.19,9.43,9.43,0,0,0-1.82,6.18V236a8.31,8.31,0,0,0,1.94,5.87,7,7,0,0,0,5.42,2.08,6.23,6.23,0,0,0,3.84-1.15,5.84,5.84,0,0,0,2.15-3.17l4,1.25a8.59,8.59,0,0,1-3.46,5.25,11.22,11.22,0,0,1-6.55,1.81A12.56,12.56,0,0,1,240.53,246.54Z" transform="translate(-3.72)"/><path class="cls-1" d="M264.28,216.61h4.29v30.92h-4.29Zm14.91,3.74a5.34,5.34,0,0,0-1.71-.26,9.4,9.4,0,0,0-6.45,2.07,7.7,7.7,0,0,0-2.46,5.8l-.62-6a12,12,0,0,1,4.45-4.35,12.14,12.14,0,0,1,6-1.55,5.55,5.55,0,0,1,1.91.32,4.25,4.25,0,0,1,1.49.9l-1.37,3.79A3.17,3.17,0,0,0,279.19,220.35Z" transform="translate(-3.72)"/><path class="cls-2" d="M141,15.12s0,0,0,0l-.27.22.27-.24Z" transform="translate(-3.72)"/><path class="cls-3" d="M144.82,12.22h0l-.4.29.4-.3Z" transform="translate(-3.72)"/><path class="cls-4" d="M150.68,8.51c-.17.11-.32.19-.48.28-.48.26-.92.53-1.37.8h0l.67-.4C149.9,9,150.29,8.72,150.68,8.51Z" transform="translate(-3.72)"/><path class="cls-5" d="M151.59,8c.4-.22.82-.45,1.25-.66L151.59,8a2.11,2.11,0,0,0-.33.18A3.54,3.54,0,0,1,151.59,8Z" transform="translate(-3.72)"/><path class="cls-6" d="M155.16,6.2a.37.37,0,0,1,.14-.06l-.23.11A.2.2,0,0,1,155.16,6.2Z" transform="translate(-3.72)"/><path class="cls-7" d="M157.41,5.2c1-.41,2-.82,3-1.17-1,.38-2,.77-3,1.19-.51.2-1,.43-1.49.65l-.6.27.42-.2.91-.41.73-.32Z" transform="translate(-3.72)"/><path class="cls-8" d="M185.17,0l-2,0a66.34,66.34,0,0,0-22.78,4,65.84,65.84,0,0,1,22.76-4C183.85,0,184.51,0,185.17,0Z" transform="translate(-3.72)"/><path class="cls-9" d="M191,.46c-1.92-.22-3.88-.37-5.84-.42C187.13.08,189.09.24,191,.46Z" transform="translate(-3.72)"/><path class="cls-10" d="M223.52,118.86l-.14.12-.93.69Z" transform="translate(-3.72)"/><path class="cls-11" d="M234.14,108.65l-1,1.15c-.21.25-.44.5-.66.74l-.27.31-.2.21c-.23.25-.45.5-.69.73.49-.5,1-1,1.42-1.55S233.69,109.19,234.14,108.65Z" transform="translate(-3.72)"/><path class="cls-12" d="M236.73,105.31c.21-.28.41-.57.62-.86a2.12,2.12,0,0,1-.12.2l-.16.21-.6.82-.6.8a0,0,0,0,1,0,0c-.12.17-.25.33-.39.5C235.89,106.44,236.32,105.88,236.73,105.31Z" transform="translate(-3.72)"/><path class="cls-13" d="M239.12,101.81c-.16.27-.33.53-.52.8.09-.13.17-.27.25-.4A3.51,3.51,0,0,0,239.12,101.81Z" transform="translate(-3.72)"/><path class="cls-14" d="M240.23,100c-.22.4-.47.8-.73,1.2.14-.21.27-.44.4-.66a5.89,5.89,0,0,0,.32-.54Z" transform="translate(-3.72)"/><path class="cls-15" d="M194.43,131.61l-.12,0-.22,0Z" transform="translate(-3.72)"/><path class="cls-15" d="M223.52,118.86l-.14.12-.93.69Z" transform="translate(-3.72)"/><path class="cls-15" d="M232.76,110.24a3.73,3.73,0,0,1-.26.3l-.27.31-.2.21c-.23.25-.45.5-.69.73C231.83,111.29,232.3,110.77,232.76,110.24Z" transform="translate(-3.72)"/><path class="cls-15" d="M234.14,108.65l-1,1.15c-.13.15-.26.3-.4.44Q233.46,109.46,234.14,108.65Z" transform="translate(-3.72)"/><path class="cls-15" d="M236.73,105.31a3.09,3.09,0,0,1-.26.37l-.6.8a0,0,0,0,1,0,0c-.12.17-.25.33-.39.5C235.89,106.44,236.32,105.88,236.73,105.31Z" transform="translate(-3.72)"/><path class="cls-15" d="M237.35,104.45a2.12,2.12,0,0,1-.12.2l-.16.21a4.83,4.83,0,0,1-.34.45C236.94,105,237.14,104.74,237.35,104.45Z" transform="translate(-3.72)"/><path class="cls-16" d="M249.45,66.29a66,66,0,0,1-8.84,33.08l-.38.64h0a5.89,5.89,0,0,1-.32.54c-.13.22-.26.45-.4.66l-.38.6a3.51,3.51,0,0,1-.27.4c-.08.13-.16.27-.25.4-.21.33-.43.65-.64,1s-.4.59-.61.87-.41.58-.62.86c-.41.57-.84,1.13-1.27,1.69s-.87,1.1-1.32,1.65-.91,1.07-1.38,1.59-.93,1.05-1.42,1.55l-.2.22-1.28,1.3c-.5.5-1,1-1.52,1.46-.33.32-.67.63-1,1l-.42.37-.11.1c-.36.32-.73.62-1.09.93-.12.09-.24.2-.36.31l-1.23,1-.58.44-1.07.81-.51.37c-.15.12-.32.23-.47.33l-1.24.86a5.54,5.54,0,0,1-.51.33c-.33.23-.66.45-1,.66s-.47.31-.72.45-.63.4-1,.59l-.44.26-.12.07c-.51.3-1,.59-1.54.87l-.17.1-.14.07c-.36.2-.73.39-1.1.58l-.42.22-.11.06-.93.45c-.57.28-1.16.56-1.76.82-.39.19-.79.35-1.2.53l-.49.2-1.51.62-.31.11c-.44.18-.91.34-1.39.51l-.56.2c-.65.22-1.3.45-2,.65l-.87.26-1,.28c-.56.17-1.13.31-1.71.45l-1,.25c-.58.14-1.14.26-1.72.37s-1.3.26-2,.37l-.23.05-.34,0-.17,0-.17,0c-.29.06-.57.1-.85.13a9.06,9.06,0,0,1-.91.13c-.45.07-.9.12-1.34.17l-.7.08-.51.05-1.59.13-.32,0-1.55.08h-.08l-.86,0-1.85,0A66.29,66.29,0,0,1,116.9,66.29c0-2.15.11-4.27.31-6.37,0-.39.07-.79.11-1.18a.89.89,0,0,1,0-.14c0-.36.08-.73.13-1.09.21-1.58.47-3.14.79-4.67.1-.51.21-1,.33-1.52h0c.11-.52.24-1,.37-1.55q.63-2.4,1.42-4.74c.16-.48.33-1,.5-1.46L121.5,42c.2-.49.4-1,.61-1.48.42-1,.86-2,1.33-2.94.22-.48.47-1,.71-1.44s.49-1,.75-1.42c.51-.93,1-1.87,1.59-2.77l.85-1.36c.3-.45.58-.89.89-1.33h0l.51-.74q.18-.29.39-.57l.66-.91.05-.07.59-.78c.41-.54.85-1.09,1.28-1.62.19-.25.39-.49.59-.73L133,23l.06-.06.21-.25c.85-1,1.72-1.9,2.62-2.81.14-.14.28-.3.42-.43s.3-.29.44-.42.46-.47.69-.68l.67-.63c.28-.26.56-.52.84-.76a3,3,0,0,1,.27-.25l.24-.2c.42-.38.85-.75,1.28-1.11l.27-.22s0,0,0,0c.48-.4,1-.8,1.48-1.18l.39-.3c.5-.38,1-.76,1.5-1.12l.4-.29h0c.17-.11.32-.22.49-.32.4-.29.8-.56,1.21-.83a2.31,2.31,0,0,1,.28-.19c.66-.44,1.32-.86,2-1.26,0,0,0,0,0,0,.45-.27.89-.54,1.37-.8.16-.09.31-.17.48-.28s.39-.21.58-.32a2.11,2.11,0,0,1,.33-.18l1.25-.67h0c.23-.13.48-.24.73-.36a4.53,4.53,0,0,1,.54-.27,3.81,3.81,0,0,1,.45-.23l.5-.23.23-.11h0l.6-.27c.48-.22,1-.45,1.49-.65,1-.42,2-.81,3-1.19h0a66.34,66.34,0,0,1,22.78-4l2,0c2,0,3.92.2,5.84.42.65.08,1.29.16,1.92.26l2,.32,1.81.35c.62.14,1.25.27,1.86.43A66.29,66.29,0,0,1,249.45,66.29Z" transform="translate(-3.72)"/><path class="cls-17" d="M141,15.12s0,0,0,0v0Z" transform="translate(-3.72)"/><polygon class="cls-18" points="141.1 12.22 141.09 12.23 141.09 12.22 141.1 12.22"/><path class="cls-19" d="M150.2,8.79c-.48.26-.92.53-1.37.8h0l.67-.4Z" transform="translate(-3.72)"/><path class="cls-20" d="M151.59,8c.4-.22.82-.45,1.25-.66L151.59,8Z" transform="translate(-3.72)"/><path class="cls-21" d="M153.58,7c-.25.12-.5.23-.73.36l.19-.1A3.36,3.36,0,0,1,153.58,7Z" transform="translate(-3.72)"/><path class="cls-22" d="M155.16,6.2a.37.37,0,0,1,.14-.06l-.23.11A.2.2,0,0,1,155.16,6.2Z" transform="translate(-3.72)"/><path class="cls-23" d="M155.91,5.87l-.6.27.42-.2Z" transform="translate(-3.72)"/><path class="cls-24" d="M157.41,5.2v0c-.51.2-1,.43-1.49.65l.73-.34.73-.32Z" transform="translate(-3.72)"/><path class="cls-25" d="M194.43,131.61l-.12,0c-.13,0-.26.05-.39.06l.17,0Z" transform="translate(-3.72)"/><path class="cls-26" d="M240.23,100c-.11.19-.21.36-.33.54a5.89,5.89,0,0,0,.32-.54Z" transform="translate(-3.72)"/><path class="cls-1" d="M201.86,119.73l-.27,0a32.59,32.59,0,0,0-47.26-40.54A45.38,45.38,0,0,0,67,96.46a46.85,46.85,0,0,0,.37,5.59L67,102a30.43,30.43,0,1,0,0,60.86H201.86a21.58,21.58,0,1,0,0-43.16Z" transform="translate(-3.72)"/></g></g></svg>