<svg xmlns="http://www.w3.org/2000/svg"  viewBox="0 0 100 100" width="300px" height="300px"><path d="M52.017,98c-2.401,0-4.592-1.288-5.76-3.374l-3.303-5.545c-1.196,0.787-2.596,1.211-4.036,1.211 c-3.487,0-6.528-2.476-7.231-5.887l-0.029-0.146l-6.386,2.059c-0.686,0.232-1.398,0.351-2.121,0.351 c-1.711,0-3.334-0.652-4.569-1.836c-1.815-1.742-2.481-4.314-1.741-6.715l1.977-6.369c-2.444-0.603-2.019-3.686-2.816-6.089 c-0.719-2.167-2.798-3.29-1.55-5.163l-4.514-5.368c-2.159-1.023-5.488-0.81-5.645-3.204L4.27,51.596l0.021-0.327 c0.157-2.394,1.596-4.517,3.754-5.539l6.281-2.977c-1.146-1.839-1.438-4.127-0.744-6.221c0.805-2.428,2.826-4.272,5.307-4.857 l-2.046-6.591c-0.744-2.415-0.076-4.988,1.739-6.727c1.234-1.183,2.857-1.835,4.568-1.835c0.766,0,1.519,0.132,2.237,0.391 l6.274,2.241l0.025-0.119c0.701-3.409,3.742-5.886,7.23-5.886c1.49,0,2.938,0.454,4.159,1.293l3.112-5.913 c1.15-2.178,3.388-3.528,5.844-3.528h0.251l0.117,0.011c7.29,0,10.514,9.235,10.514,9.235c1.154-0.714-0.776,1.519,0.596,1.519 c3.484,0,5.957,3.319,8.358,3.266l0.006,0.028l5.681-2.127c0.78-0.28,1.53-0.411,2.293-0.411c1.764,0,3.422,0.687,4.669,1.935 c1.795,1.79,2.405,4.495,1.551,6.889l-2.2,6.161l0.596,0.122c2.572,0.531,4.684,2.409,5.51,4.902 c0.72,2.171,0.379,4.55-0.874,6.424l5.854,2.773c2.159,1.021,3.598,3.147,3.752,5.548l0.021,0.319l-0.021,0.32 c-0.153,2.396-1.589,4.52-3.746,5.545l-5.989,2.836c1.36,1.903,1.749,4.371,1.004,6.616c-0.828,2.492-2.939,4.369-5.511,4.898 l-0.511,0.105l2.117,5.927c0.853,2.394,0.243,5.098-1.551,6.891c-1.247,1.248-2.905,1.935-4.669,1.935 c-0.733,0-1.456-0.121-2.147-0.359l-5.828-1.921l-0.003,0.018c-0.706,3.411-3.747,5.886-7.231,5.886 c-1.35,0-2.664-0.372-3.808-1.065l-2.952,5.212c-1.113,2.152-3.285,3.51-5.724,3.561L52.102,98H52.017z" opacity=".35"/><path fill="#f2f2f2" d="M50.017,96c-2.401,0-4.592-1.288-5.76-3.374l-3.303-5.545c-1.196,0.787-2.596,1.211-4.036,1.211 c-3.487,0-6.528-2.476-7.231-5.887l-0.029-0.146l-6.386,2.059c-0.686,0.232-1.398,0.351-2.121,0.351 c-1.711,0-3.334-0.652-4.569-1.836c-1.815-1.742-2.481-4.314-1.741-6.715l1.977-6.369c-2.444-0.603-4.436-2.434-5.233-4.837 c-0.719-2.167-0.381-4.543,0.867-6.416l-6.404-3.033c-2.159-1.023-3.598-3.146-3.755-5.539L2.27,49.596l0.021-0.327 c0.157-2.394,1.596-4.517,3.754-5.539l6.281-2.977c-1.146-1.839-1.438-4.127-0.744-6.221c0.805-2.428,2.826-4.272,5.307-4.857 l-2.046-6.591c-0.744-2.415-0.076-4.988,1.739-6.727c1.234-1.183,2.857-1.835,4.568-1.835c0.766,0,1.519,0.132,2.237,0.391 l6.274,2.241l0.025-0.119c0.701-3.409,3.742-5.886,7.23-5.886c1.49,0,2.938,0.454,4.159,1.293l3.112-5.913 c1.15-2.178,3.388-3.528,5.844-3.528h0.251l0.117,0.011c2.396,0.132,4.504,1.526,5.562,3.688l2.814,5.548 c1.154-0.714,2.488-1.098,3.86-1.098c3.484,0,6.525,2.475,7.23,5.883l0.006,0.028l5.681-2.127c0.78-0.28,1.53-0.411,2.293-0.411 c1.764,0,3.422,0.687,4.669,1.935c1.795,1.79,2.405,4.495,1.551,6.889l-2.2,6.161l0.596,0.122c2.572,0.531,4.684,2.409,5.51,4.902 c0.72,2.171,0.379,4.55-0.874,6.424l5.854,2.773c2.159,1.021,3.598,3.147,3.752,5.548l0.021,0.319l-0.021,0.32 c-0.153,2.396-1.589,4.52-3.746,5.545l-5.989,2.836c1.36,1.903,1.749,4.371,1.004,6.616c-0.828,2.492-2.939,4.369-5.511,4.898 l-0.511,0.105l2.117,5.927c0.853,2.394,0.243,5.098-1.551,6.891c-1.247,1.248-2.905,1.935-4.669,1.935 c-0.733,0-1.456-0.121-2.147-0.359l-5.828-1.921l-0.003,0.018c-0.706,3.411-3.747,5.886-7.231,5.886 c-1.35,0-2.664-0.372-3.808-1.065l-2.952,5.212c-1.113,2.152-3.285,3.51-5.724,3.561L50.102,96H50.017z"/><path fill="#f9b84f" d="M50.017,89.5c-0.038,0-0.074-0.021-0.092-0.055l-6.441-10.821c-0.229-0.385-0.618-0.646-1.06-0.715 c-0.077-0.012-0.153-0.018-0.229-0.018c-0.365,0-0.721,0.133-0.997,0.379l-3.709,3.299c-0.166,0.147-0.358,0.223-0.57,0.223 c-0.348,0-0.766-0.219-0.865-0.698l-1.156-5.605c-0.086-0.418-0.346-0.778-0.713-0.993c-0.232-0.135-0.493-0.204-0.756-0.204 c-0.154,0-0.31,0.023-0.46,0.072l-11.738,3.784l-0.15-0.007c-0.029-0.028-0.04-0.069-0.027-0.109l3.605-11.616 c0.125-0.404,0.074-0.843-0.141-1.207c-0.216-0.364-0.574-0.621-0.989-0.706l-5.123-1.057c-0.445-0.092-0.604-0.437-0.651-0.58 c-0.048-0.144-0.127-0.515,0.176-0.855l3.746-4.211c0.313-0.354,0.443-0.833,0.349-1.296c-0.094-0.463-0.4-0.854-0.828-1.057 L8.844,49.596l12.195-5.777c0.427-0.202,0.733-0.594,0.827-1.057c0.095-0.463-0.035-0.942-0.349-1.296l-3.588-4.035 c-0.303-0.34-0.225-0.711-0.178-0.854c0.048-0.145,0.207-0.489,0.652-0.581l5.196-1.07c0.414-0.085,0.773-0.342,0.989-0.706 c0.215-0.364,0.266-0.803,0.141-1.207l-3.68-11.854c-0.011-0.036-0.001-0.078,0.026-0.105l0.107-0.022l11.708,4.181 c0.164,0.058,0.335,0.087,0.505,0.087c0.255,0,0.508-0.064,0.735-0.192c0.378-0.213,0.646-0.579,0.733-1.005l1.187-5.752 c0.1-0.479,0.518-0.698,0.865-0.698c0.212,0,0.404,0.075,0.57,0.223l4.069,3.62c0.277,0.246,0.633,0.379,0.997,0.379 c0.089,0,0.179-0.008,0.268-0.024c0.454-0.082,0.845-0.369,1.06-0.777l6.06-11.513c0.017-0.03,0.049-0.052,0.083-0.056 c0.004,0.001,0.007,0.001,0.011,0.001c0.04,0.001,0.074,0.022,0.091,0.058l5.738,11.311c0.211,0.415,0.602,0.709,1.059,0.795 c0.093,0.018,0.187,0.026,0.279,0.026c0.364,0,0.72-0.133,0.997-0.379l3.868-3.44c0.166-0.147,0.358-0.223,0.57-0.223 c0.348,0,0.766,0.219,0.865,0.698l1.185,5.746c0.088,0.43,0.36,0.799,0.743,1.011c0.225,0.124,0.475,0.187,0.726,0.187 c0.178,0,0.355-0.031,0.526-0.096l11.151-4.174c0.115,0.061,0.125,0.103,0.111,0.14l-4.135,11.576 c-0.146,0.409-0.107,0.861,0.105,1.24c0.213,0.378,0.579,0.646,1.005,0.733l6.229,1.284c0.445,0.092,0.604,0.438,0.652,0.581 s0.126,0.515-0.177,0.854l-3.754,4.221c-0.313,0.354-0.443,0.833-0.349,1.296c0.094,0.463,0.4,0.854,0.827,1.057l11.804,5.592 l-11.96,5.665c-0.427,0.202-0.733,0.594-0.827,1.057c-0.095,0.463,0.035,0.942,0.349,1.296l3.91,4.396 c0.303,0.34,0.225,0.712,0.177,0.855s-0.207,0.488-0.652,0.58l-6.146,1.268c-0.426,0.087-0.792,0.355-1.005,0.733 c-0.213,0.379-0.251,0.831-0.105,1.24l4.052,11.344c0.014,0.037,0.005,0.079-0.024,0.108c-0.001-0.001-0.143,0.013-0.144,0.012 l-11.199-3.692c-0.153-0.05-0.312-0.075-0.47-0.075c-0.261,0-0.521,0.068-0.751,0.201c-0.37,0.215-0.632,0.577-0.718,0.996 l-1.137,5.514c-0.1,0.479-0.518,0.698-0.865,0.698c-0.212,0-0.404-0.074-0.57-0.223l-3.603-3.204 c-0.277-0.246-0.633-0.379-0.997-0.379c-0.082,0-0.164,0.007-0.245,0.021c-0.447,0.074-0.837,0.346-1.061,0.74L50.16,89.344 c-0.018,0.032-0.035,0.065-0.051,0.099s-0.048,0.055-0.084,0.058H50.017z"/><path fill="#40396e" d="M51.269,10.256h0.005H51.269 M50.01,12.647l4.517,8.901c0.421,0.83,1.203,1.417,2.117,1.59 c0.186,0.035,0.372,0.052,0.558,0.052c0.729,0,1.44-0.266,1.994-0.758l3.057-2.718l0.965,4.682 c0.177,0.858,0.721,1.597,1.488,2.02c0.449,0.248,0.949,0.374,1.451,0.374c0.355,0,0.712-0.063,1.052-0.19l8.314-3.113 l-3.124,8.746c-0.292,0.818-0.215,1.722,0.21,2.479s1.159,1.292,2.009,1.468l5.166,1.065l-3.032,3.409 c-0.628,0.706-0.887,1.666-0.698,2.592c0.188,0.926,0.802,1.709,1.656,2.113l8.941,4.235l-9.098,4.31 c-0.854,0.404-1.467,1.187-1.656,2.113s0.07,1.886,0.698,2.592l3.189,3.585l-5.083,1.048c-0.851,0.175-1.583,0.711-2.009,1.468 c-0.426,0.757-0.502,1.661-0.21,2.479l3.091,8.654l-8.525-2.81c-0.306-0.101-0.623-0.151-0.939-0.151 c-0.522,0-1.041,0.136-1.502,0.403c-0.741,0.429-1.263,1.153-1.436,1.991l-0.917,4.45l-2.791-2.482 c-0.553-0.492-1.264-0.758-1.994-0.758c-0.163,0-0.327,0.013-0.491,0.04c-0.894,0.148-1.673,0.693-2.12,1.481l-4.872,8.603 l-5.213-8.754c-0.458-0.769-1.235-1.293-2.119-1.43c-0.153-0.024-0.306-0.035-0.458-0.035c-0.73,0-1.441,0.266-1.994,0.758 l-2.898,2.577l-0.936-4.542c-0.172-0.835-0.691-1.557-1.427-1.986c-0.464-0.27-0.985-0.408-1.511-0.408 c-0.309,0-0.62,0.048-0.92,0.145l-9.227,2.975l2.809-9.051c0.251-0.808,0.149-1.685-0.282-2.414 c-0.43-0.729-1.149-1.242-1.978-1.413l-4.059-0.837l3.024-3.4c0.628-0.706,0.886-1.666,0.698-2.592s-0.802-1.709-1.656-2.113 l-9.49-4.495l9.334-4.421c0.854-0.404,1.467-1.187,1.656-2.113c0.188-0.926-0.07-1.886-0.698-2.592l-2.867-3.224l4.132-0.852 c0.829-0.171,1.547-0.684,1.978-1.413c0.43-0.729,0.533-1.606,0.282-2.414l-2.851-9.186l9.077,3.242 c0.327,0.117,0.669,0.175,1.009,0.175c0.509,0,1.016-0.13,1.47-0.385c0.757-0.426,1.292-1.159,1.468-2.009l0.967-4.689 l3.259,2.898c0.554,0.493,1.265,0.758,1.994,0.758c0.178,0,0.358-0.016,0.536-0.048c0.908-0.165,1.689-0.738,2.119-1.554 L50.01,12.647 M37.522,18.651h0.005H37.522 M63.064,18.993h0.005H63.064 M78.319,22.44h0.005H78.319 M50.033,8.001 c-0.594,0-1.141,0.329-1.419,0.857l-6.059,11.513l-4.07-3.62c-0.464-0.413-1.02-0.602-1.567-0.602 c-1.063,0-2.09,0.715-2.334,1.896l-1.186,5.752L21.69,19.616c-0.177-0.063-0.359-0.093-0.54-0.093 c-0.407,0-0.806,0.155-1.11,0.446c-0.438,0.42-0.601,1.052-0.422,1.633l3.679,11.854l-5.195,1.071 c-1.789,0.369-2.508,2.536-1.294,3.901l3.589,4.035l-12.21,5.784c-0.527,0.25-0.868,0.769-0.906,1.349 c0.038,0.579,0.378,1.098,0.906,1.348l12.367,5.858l-3.745,4.211c-1.214,1.365-0.495,3.532,1.294,3.901l5.122,1.056l-3.606,11.619 c-0.18,0.581-0.017,1.213,0.422,1.633c0.304,0.291,0.703,0.446,1.11,0.446c0.181,0,0.363-0.031,0.54-0.093l11.738-3.784 l1.156,5.605c0.244,1.181,1.271,1.896,2.334,1.896c0.547,0,1.104-0.189,1.567-0.602l3.709-3.299l6.404,10.753 C48.875,90.671,49.423,91,50.017,91c0.011,0,0.023,0,0.033,0c0.608-0.013,1.156-0.367,1.416-0.917l6.002-10.597l3.602,3.204 c0.464,0.412,1.02,0.602,1.567,0.602c1.063,0,2.09-0.715,2.334-1.896l1.137-5.513l11.2,3.692c0.176,0.063,0.359,0.093,0.54,0.093 c0.418,0,0.828-0.164,1.134-0.47c0.438-0.438,0.585-1.089,0.377-1.673l-4.052-11.344l6.146-1.267 c1.789-0.369,2.508-2.536,1.294-3.901l-3.911-4.397l11.975-5.672c0.528-0.25,0.865-0.77,0.902-1.348 c-0.037-0.579-0.374-1.098-0.902-1.349l-11.818-5.598l3.754-4.221c1.214-1.365,0.495-3.532-1.294-3.901l-6.23-1.284l4.135-11.577 c0.208-0.584,0.062-1.235-0.377-1.673c-0.306-0.306-0.716-0.47-1.134-0.47c-0.181,0-0.363,0.03-0.54,0.093l-11.152,4.175 l-1.185-5.746c-0.244-1.181-1.271-1.896-2.334-1.896c-0.547,0-1.104,0.189-1.567,0.602l-3.868,3.44l-5.72-11.272 c-0.26-0.549-0.808-0.904-1.416-0.917C50.056,8.001,50.045,8.001,50.033,8.001L50.033,8.001z"/><g><circle cx="50" cy="50" r="19" fill="#ffc571"/></g></svg>